<svg width="19" height="14" viewBox="0 0 19 14" fill="none" xmlns="http://www.w3.org/2000/svg">
<g clip-path="url(#clip0_139_1892)">
<path d="M7.00049 14C3.15049 14 0.000488281 10.85 0.000488281 7C0.000488281 3.15 3.15049 0 7.00049 0C10.8505 0 14.0005 3.15 14.0005 7C14.0005 10.85 10.8505 14 7.00049 14ZM7.00049 0.875C3.63174 0.875 0.875488 3.63125 0.875488 7C0.875488 10.3687 3.63174 13.125 7.00049 13.125C10.3692 13.125 13.1255 10.3687 13.1255 7C13.1255 3.63125 10.3692 0.875 7.00049 0.875Z" fill="black"/>
<path d="M5.68662 9.8001L3.63037 7.74385L4.24287 7.13135L5.68662 8.5751L9.75537 4.50635L10.3679 5.11885L5.68662 9.8001Z" fill="black"/>
</g>
<defs>
<clipPath id="clip0_139_1892">
<rect width="18.6569" height="14" fill="white" transform="translate(0.000488281)"/>
</clipPath>
</defs>
</svg>
