<svg width="137" height="24" viewBox="0 0 137 24" fill="none" xmlns="http://www.w3.org/2000/svg">
<path d="M11.375 0L13.9008 8.2918H22.0744L15.4618 13.4164L17.9876 21.7082L11.375 16.5836L4.76242 21.7082L7.2882 13.4164L0.675614 8.2918H8.84922L11.375 0Z" fill="#56B280"/>
<path d="M38.7397 0L41.2655 8.2918H49.4391L42.8265 13.4164L45.3523 21.7082L38.7397 16.5836L32.1272 21.7082L34.6529 13.4164L28.0404 8.2918H36.214L38.7397 0Z" fill="#56B280"/>
<path d="M66.1045 0L68.6303 8.2918H76.8039L70.1913 13.4164L72.7171 21.7082L66.1045 16.5836L59.4919 21.7082L62.0177 13.4164L55.4051 8.2918H63.5787L66.1045 0Z" fill="#56B280"/>
<path d="M93.4697 0L95.9955 8.2918H104.169L97.5565 13.4164L100.082 21.7082L93.4697 16.5836L86.8571 21.7082L89.3829 13.4164L82.7703 8.2918H90.9439L93.4697 0Z" fill="#56B280"/>
<path d="M125.699 0L128.225 8.2918H136.399L129.786 13.4164L132.312 21.7082L125.699 16.5836L119.087 21.7082L121.612 13.4164L115 8.2918H123.173L125.699 0Z" fill="#5BC08A"/>
</svg>
